<svg version="1.1" id="Layer_1" xmlns="http://www.w3.org/2000/svg" xmlns:xlink="http://www.w3.org/1999/xlink" x="0px" y="0px"
	 width="100%" viewBox="0 0 731 317" enable-background="new 0 0 731 317" xml:space="preserve">
<path fill="#000000" opacity="1.000000" stroke="none" 
	d="
M1.000006,283.000000 
	C1.000000,189.063950 1.000000,95.127914 1.000000,1.000000 
	C120.354698,1.000000 239.709503,1.000000 359.608765,1.348941 
	C357.283783,5.117152 354.575989,8.689263 351.514282,11.926696 
	C342.715973,21.229902 333.625732,30.260544 324.945343,39.670513 
	C319.778503,45.271633 314.733643,51.237656 316.453705,59.828629 
	C317.757812,66.341927 317.605591,66.713150 311.166748,69.080292 
	C310.390808,69.365570 309.640045,69.720787 308.882416,70.054466 
	C299.410919,74.225952 294.884247,82.879074 289.995270,91.123047 
	C283.579742,101.941124 277.470001,112.940620 271.048737,123.755203 
	C267.705963,129.384964 263.434418,133.699097 256.696625,135.882538 
	C245.453018,139.526108 236.334854,146.905029 228.398163,155.450043 
	C220.406921,164.053802 213.158585,173.343170 205.311081,182.086502 
	C200.614517,187.319229 199.140167,187.182465 193.919647,182.389984 
	C184.871597,174.083817 175.864716,165.732513 166.877716,157.360275 
	C162.404022,153.192627 158.218521,153.013260 153.983856,157.618561 
	C148.387344,163.704926 143.217422,170.181473 137.789627,176.425522 
	C130.259354,185.088257 122.104095,193.057388 109.611916,192.888885 
	C100.178200,192.761642 93.726631,197.748627 87.713997,203.908127 
	C84.356758,207.347382 81.287254,211.067062 77.938698,214.515320 
	C70.323166,222.357574 62.615387,230.110229 54.684975,238.093216 
	C53.528500,239.864548 52.632149,241.441971 51.253731,243.867737 
	C54.194214,243.105286 56.122440,242.605301 58.397919,242.034012 
	C65.568825,237.388275 72.471718,232.926285 79.184608,228.194717 
	C82.856705,225.606415 85.546135,224.920700 87.595055,229.972504 
	C88.639267,232.547134 90.933205,233.938583 93.631493,232.055618 
	C101.401863,226.633118 110.169250,226.150192 119.248779,225.825378 
	C126.407387,225.569260 133.616211,224.786606 139.494186,219.201248 
	C145.956268,213.060883 153.770828,209.786789 163.070496,211.794205 
	C164.526169,212.108429 166.141983,211.680771 168.192886,211.568207 
	C166.938187,207.538162 165.558334,204.309372 164.971619,200.942368 
	C164.069321,195.764343 163.165131,190.478592 163.287582,185.262634 
	C163.394577,180.705063 166.541473,179.717285 170.023239,182.543839 
	C175.546448,187.027588 180.971924,191.636490 186.594620,195.991196 
	C190.274139,198.840958 191.301376,201.819412 188.143753,205.620026 
	C186.877182,207.144516 185.514694,208.597412 184.344391,210.191910 
	C182.476913,212.736237 180.733536,215.371643 178.449921,218.673859 
	C189.207703,219.155136 198.647278,219.963394 208.074112,219.835251 
	C212.738663,219.771835 217.891510,218.947418 221.937790,216.799179 
	C235.343460,209.681976 249.664581,206.062775 264.509521,204.180771 
	C269.515656,203.546112 275.377991,202.254578 279.589966,204.114532 
	C293.930908,210.447342 307.833282,217.823532 321.651489,225.268448 
	C328.431549,228.921402 334.075348,234.842651 342.388794,235.210739 
	C344.381348,235.298965 346.393738,234.939362 348.397034,234.785706 
	C347.986786,232.666595 348.164642,230.163788 347.072357,228.489670 
	C339.009094,216.131241 329.008484,205.225937 316.816986,197.185516 
	C296.949310,184.082581 276.212280,172.298431 255.859528,159.929108 
	C254.298462,158.980377 252.874924,157.805374 250.754745,156.280472 
	C252.890839,155.375458 254.021942,154.692505 255.245544,154.409424 
	C267.058990,151.676407 274.913025,143.883087 280.928009,133.989777 
	C286.430786,124.939003 291.455353,115.598930 296.846344,106.478371 
	C303.832245,94.659576 312.276154,84.154213 323.960693,76.517906 
	C326.775208,74.678520 330.049042,72.502747 331.412628,69.665199 
	C336.839905,58.371395 347.191010,51.384144 354.650513,41.914948 
	C356.738068,39.264954 359.025208,39.526531 361.416321,41.887283 
	C367.453217,47.847527 372.012390,54.670998 373.512177,63.119431 
	C375.172485,72.471970 373.228058,79.154640 362.054749,78.036087 
	C352.730621,77.102654 345.197571,81.186699 338.975830,87.611877 
	C328.115326,98.827560 317.486328,110.269608 306.907013,121.751961 
	C305.881165,122.865364 305.094971,125.281769 305.622650,126.449173 
	C306.184570,127.692307 308.390320,128.725388 309.968323,128.870239 
	C313.770050,129.219223 317.624481,128.974991 321.457336,129.007477 
	C332.784149,129.103485 341.028931,133.546341 345.491699,144.634232 
	C346.932068,148.212891 349.972198,151.735413 353.207062,153.897064 
	C364.192535,161.238007 375.301147,168.497894 386.912720,174.770660 
	C399.393585,181.513062 412.496185,187.104202 425.325317,193.202332 
	C435.748383,198.156754 446.890381,202.034317 456.395081,208.367981 
	C466.786163,215.292328 475.590454,224.576843 485.270935,232.610229 
	C486.808807,233.886414 489.316925,233.993408 491.376465,234.640961 
	C491.897614,232.676987 492.765045,230.727081 492.845551,228.745224 
	C492.931305,226.634064 492.272522,224.492676 491.938812,222.364487 
	C492.588135,222.089050 493.237488,221.813614 493.886810,221.538177 
	C495.577911,224.472839 497.853455,227.222748 498.850433,230.376816 
	C501.837280,239.826096 504.163666,249.484375 507.160187,258.930237 
	C507.676544,260.557983 510.211700,261.545288 511.814301,262.828430 
	C512.734802,260.946045 514.390015,259.069550 514.405151,257.179932 
	C514.428284,254.279114 513.373352,251.357468 512.686829,248.465805 
	C511.394623,243.023010 512.920471,239.634232 518.240845,238.133484 
	C529.126465,235.062897 538.951721,237.696426 547.395386,244.982071 
	C555.053223,251.589676 562.364014,258.598022 569.901978,265.346893 
	C572.146912,267.356812 574.740601,269.566620 577.688354,266.632812 
	C580.399353,263.934662 577.940552,261.807831 576.296204,259.805145 
	C569.682007,251.749649 562.920349,243.813263 556.398865,235.683945 
	C541.376404,216.957794 527.214844,197.472549 508.518585,182.029724 
	C502.529449,177.082794 497.094482,171.056808 490.354523,167.539230 
	C483.274139,163.843948 478.472137,159.001740 475.022095,152.145920 
	C466.371033,134.954620 458.086487,117.551926 448.706299,100.764053 
	C442.498047,89.653030 434.758179,79.608246 422.350189,73.972633 
	C408.937042,67.880463 397.936401,58.233356 390.405792,45.645744 
	C383.718231,34.467323 378.645599,22.323387 372.847290,10.611971 
	C371.255219,7.396267 369.617035,4.203365 368.000000,0.999999 
	C489.246185,1.000000 610.492371,1.000000 732.000000,1.000000 
	C732.000000,81.687912 732.000000,162.376099 731.632446,243.648346 
	C727.746521,246.419815 724.187805,248.545242 720.717041,250.805801 
	C708.130127,259.003784 696.158691,268.389313 682.867737,275.207306 
	C662.593018,285.607788 640.721436,292.070770 617.764099,292.922485 
	C599.716370,293.592072 581.414062,294.651245 563.597229,292.480774 
	C540.730225,289.695038 518.041687,284.637573 495.631683,279.116150 
	C469.011688,272.557434 442.862122,264.113647 416.340698,257.124359 
	C380.365265,247.643616 343.966461,240.144180 306.819855,236.979980 
	C284.726990,235.098068 262.618744,232.825378 240.477844,232.249664 
	C220.765610,231.737061 200.937195,232.565109 181.272659,234.176086 
	C159.236328,235.981354 137.177841,238.464828 115.394974,242.203094 
	C78.449799,248.543472 43.372452,260.813263 10.390083,278.829437 
	C7.394485,280.465729 4.136272,281.621246 1.000006,283.000000 
M573.042114,100.968735 
	C573.042114,100.968735 573.108032,100.967278 572.981201,100.333282 
	C572.337830,99.523346 571.694458,98.713409 571.043701,97.967422 
	C571.043701,97.967422 571.107788,97.961136 570.978516,97.288246 
	C570.003967,95.827034 569.029419,94.365814 568.044678,92.967110 
	C568.044678,92.967110 568.107788,92.961212 567.977966,92.286079 
	C566.999207,90.818962 566.020508,89.351845 564.959717,87.419022 
	C564.959717,87.419022 564.833496,86.963295 564.768250,86.541817 
	C564.610657,86.259918 564.371094,86.134804 563.441162,85.824028 
	C559.184570,80.366631 554.928040,74.909241 549.965698,68.547043 
	C547.610657,72.170433 546.123718,74.300919 544.796509,76.526619 
	C537.895813,88.098747 529.536865,97.777283 515.252869,100.185898 
	C513.742676,100.440544 512.063110,101.447502 511.053802,102.616356 
	C506.234222,108.197746 501.138550,113.634354 497.058960,119.736137 
	C492.506744,126.544907 488.851196,133.966324 485.025269,141.236816 
	C484.231232,142.745789 484.402039,144.762497 484.054596,147.024216 
	C493.804993,146.431625 495.813416,135.210953 504.267365,134.034454 
	C505.922729,140.870132 508.149292,141.866806 513.122864,137.784760 
	C515.273682,136.019516 516.580811,133.097961 517.939392,130.526382 
	C519.936035,126.747200 521.220581,122.539986 523.538574,118.992134 
	C530.630554,108.137413 542.500793,103.942101 553.392334,98.474182 
	C553.999451,98.169380 555.614441,98.869949 556.141052,99.569054 
	C559.612061,104.176720 563.430237,108.679634 562.993713,115.731804 
	C560.631348,120.134895 558.268982,124.537987 555.953796,128.977982 
	C555.953796,128.977982 555.947021,128.918503 555.590637,129.147659 
	C555.713257,129.469849 555.835876,129.792038 555.698364,130.676514 
	C554.786682,131.506500 553.875000,132.336502 552.541748,133.231873 
	C552.259949,133.389603 552.134827,133.629166 551.840210,134.582932 
	C550.615601,137.400864 549.391052,140.218796 548.231750,143.458191 
	C548.389343,143.740097 548.628906,143.865219 549.818665,143.936554 
	C561.380981,141.686569 572.471375,143.112793 583.133423,148.118332 
	C585.973633,149.451736 588.833801,150.822632 591.816406,151.755798 
	C597.975647,153.682800 598.989197,154.907700 597.474731,160.831711 
	C595.228088,169.619583 593.532349,178.512451 595.320129,187.487793 
	C596.007141,190.936981 598.620422,194.002518 600.355957,197.242859 
	C600.889709,197.078735 601.423401,196.914612 601.957092,196.750488 
	C602.965149,194.711502 603.636108,192.390823 605.053894,190.694260 
	C607.711304,187.514389 610.373413,183.989029 613.818542,181.904816 
	C618.184082,179.263870 626.289917,180.641174 627.170471,183.704071 
	C629.691833,192.473892 631.770569,201.381866 633.710876,210.303452 
	C634.763794,215.144730 635.180664,220.124313 635.988586,225.727173 
	C636.522583,226.408051 637.056519,227.088928 637.590454,227.769775 
	C638.079834,227.212051 638.569214,226.654312 639.663025,225.724106 
	C641.115540,222.080734 642.569214,218.437790 644.020386,214.793884 
	C645.233154,211.748566 646.373596,208.672089 647.673157,205.664307 
	C649.070251,202.430603 651.673340,202.194641 654.219849,203.871796 
	C671.244690,215.084473 690.645508,220.168060 709.965942,225.292328 
	C714.301147,226.442139 719.201538,225.461212 725.344543,225.461212 
	C723.014343,223.892365 722.036865,223.038391 720.907959,222.504990 
	C711.368286,217.997879 701.651611,213.839508 692.276367,209.016068 
	C677.723267,201.528625 664.940918,191.405472 652.919006,180.438156 
	C646.917786,174.963394 641.390930,168.792587 636.537170,162.275482 
	C628.421509,151.378601 621.270691,139.763992 613.176697,128.849777 
	C610.345276,125.031815 606.356140,120.540184 602.153809,119.570045 
	C591.306946,117.065971 582.550049,111.901970 574.984863,103.329834 
	C574.340149,102.521019 573.695496,101.712204 573.042114,100.968735 
z"/>
<path fill="#ffffff" opacity="1.000000" stroke="none" 
	d="
M54.945099,237.899307 
	C62.615387,230.110229 70.323166,222.357574 77.938698,214.515320 
	C81.287254,211.067062 84.356758,207.347382 87.713997,203.908127 
	C93.726631,197.748627 100.178200,192.761642 109.611916,192.888885 
	C122.104095,193.057388 130.259354,185.088257 137.789627,176.425522 
	C143.217422,170.181473 148.387344,163.704926 153.983856,157.618561 
	C158.218521,153.013260 162.404022,153.192627 166.877716,157.360275 
	C175.864716,165.732513 184.871597,174.083817 193.919647,182.389984 
	C199.140167,187.182465 200.614517,187.319229 205.311081,182.086502 
	C213.158585,173.343170 220.406921,164.053802 228.398163,155.450043 
	C236.334854,146.905029 245.453018,139.526108 256.696625,135.882538 
	C263.434418,133.699097 267.705963,129.384964 271.048737,123.755203 
	C277.470001,112.940620 283.579742,101.941124 289.995270,91.123047 
	C294.884247,82.879074 299.410919,74.225952 308.882416,70.054466 
	C309.640045,69.720787 310.390808,69.365570 311.166748,69.080292 
	C317.605591,66.713150 317.757812,66.341927 316.453705,59.828629 
	C314.733643,51.237656 319.778503,45.271633 324.945343,39.670513 
	C333.625732,30.260544 342.715973,21.229902 351.514282,11.926696 
	C354.575989,8.689263 357.283783,5.117152 360.076599,1.348941 
	C362.370575,1.000000 364.741119,1.000000 367.555847,0.999999 
	C369.617035,4.203365 371.255219,7.396267 372.847290,10.611971 
	C378.645599,22.323387 383.718231,34.467323 390.405792,45.645744 
	C397.936401,58.233356 408.937042,67.880463 422.350189,73.972633 
	C434.758179,79.608246 442.498047,89.653030 448.706299,100.764053 
	C458.086487,117.551926 466.371033,134.954620 475.022095,152.145920 
	C478.472137,159.001740 483.274139,163.843948 490.354523,167.539230 
	C497.094482,171.056808 502.529449,177.082794 508.518585,182.029724 
	C527.214844,197.472549 541.376404,216.957794 556.398865,235.683945 
	C562.920349,243.813263 569.682007,251.749649 576.296204,259.805145 
	C577.940552,261.807831 580.399353,263.934662 577.688354,266.632812 
	C574.740601,269.566620 572.146912,267.356812 569.901978,265.346893 
	C562.364014,258.598022 555.053223,251.589676 547.395386,244.982071 
	C538.951721,237.696426 529.126465,235.062897 518.240845,238.133484 
	C512.920471,239.634232 511.394623,243.023010 512.686829,248.465805 
	C513.373352,251.357468 514.428284,254.279114 514.405151,257.179932 
	C514.390015,259.069550 512.734802,260.946045 511.814301,262.828430 
	C510.211700,261.545288 507.676544,260.557983 507.160187,258.930237 
	C504.163666,249.484375 501.837280,239.826096 498.850433,230.376816 
	C497.853455,227.222748 495.577911,224.472839 493.886810,221.538177 
	C493.237488,221.813614 492.588135,222.089050 491.938812,222.364487 
	C492.272522,224.492676 492.931305,226.634064 492.845551,228.745224 
	C492.765045,230.727081 491.897614,232.676987 491.376465,234.640961 
	C489.316925,233.993408 486.808807,233.886414 485.270935,232.610229 
	C475.590454,224.576843 466.786163,215.292328 456.395081,208.367981 
	C446.890381,202.034317 435.748383,198.156754 425.325317,193.202332 
	C412.496185,187.104202 399.393585,181.513062 386.912720,174.770660 
	C375.301147,168.497894 364.192535,161.238007 353.207062,153.897064 
	C349.972198,151.735413 346.932068,148.212891 345.491699,144.634232 
	C341.028931,133.546341 332.784149,129.103485 321.457336,129.007477 
	C317.624481,128.974991 313.770050,129.219223 309.968323,128.870239 
	C308.390320,128.725388 306.184570,127.692307 305.622650,126.449173 
	C305.094971,125.281769 305.881165,122.865364 306.907013,121.751961 
	C317.486328,110.269608 328.115326,98.827560 338.975830,87.611877 
	C345.197571,81.186699 352.730621,77.102654 362.054749,78.036087 
	C373.228058,79.154640 375.172485,72.471970 373.512177,63.119431 
	C372.012390,54.670998 367.453217,47.847527 361.416321,41.887283 
	C359.025208,39.526531 356.738068,39.264954 354.650513,41.914948 
	C347.191010,51.384144 336.839905,58.371395 331.412628,69.665199 
	C330.049042,72.502747 326.775208,74.678520 323.960693,76.517906 
	C312.276154,84.154213 303.832245,94.659576 296.846344,106.478371 
	C291.455353,115.598930 286.430786,124.939003 280.928009,133.989777 
	C274.913025,143.883087 267.058990,151.676407 255.245544,154.409424 
	C254.021942,154.692505 252.890839,155.375458 250.754745,156.280472 
	C252.874924,157.805374 254.298462,158.980377 255.859528,159.929108 
	C276.212280,172.298431 296.949310,184.082581 316.816986,197.185516 
	C329.008484,205.225937 339.009094,216.131241 347.072357,228.489670 
	C348.164642,230.163788 347.986786,232.666595 348.397034,234.785706 
	C346.393738,234.939362 344.381348,235.298965 342.388794,235.210739 
	C334.075348,234.842651 328.431549,228.921402 321.651489,225.268448 
	C307.833282,217.823532 293.930908,210.447342 279.589966,204.114532 
	C275.377991,202.254578 269.515656,203.546112 264.509521,204.180771 
	C249.664581,206.062775 235.343460,209.681976 221.937790,216.799179 
	C217.891510,218.947418 212.738663,219.771835 208.074112,219.835251 
	C198.647278,219.963394 189.207703,219.155136 178.449921,218.673859 
	C180.733536,215.371643 182.476913,212.736237 184.344391,210.191910 
	C185.514694,208.597412 186.877182,207.144516 188.143753,205.620026 
	C191.301376,201.819412 190.274139,198.840958 186.594620,195.991196 
	C180.971924,191.636490 175.546448,187.027588 170.023239,182.543839 
	C166.541473,179.717285 163.394577,180.705063 163.287582,185.262634 
	C163.165131,190.478592 164.069321,195.764343 164.971619,200.942368 
	C165.558334,204.309372 166.938187,207.538162 168.192886,211.568207 
	C166.141983,211.680771 164.526169,212.108429 163.070496,211.794205 
	C153.770828,209.786789 145.956268,213.060883 139.494186,219.201248 
	C133.616211,224.786606 126.407387,225.569260 119.248779,225.825378 
	C110.169250,226.150192 101.401863,226.633118 93.631493,232.055618 
	C90.933205,233.938583 88.639267,232.547134 87.595055,229.972504 
	C85.546135,224.920700 82.856705,225.606415 79.184608,228.194717 
	C72.471718,232.926285 65.568825,237.388275 58.230221,241.752502 
	C56.791878,240.327957 55.868492,239.113632 54.945099,237.899307 
M497.070068,188.473328 
	C491.061523,183.830444 484.180664,179.960190 479.234833,174.376099 
	C470.271790,164.256393 462.078125,153.386658 454.265228,142.333832 
	C443.935089,127.719788 430.057404,120.832146 412.415497,121.039238 
	C407.846222,121.092865 406.955139,122.700455 409.791840,126.381058 
	C414.329376,132.268478 418.785034,138.360840 424.158722,143.430084 
	C433.177002,151.937424 442.652618,160.007462 452.368744,167.715820 
	C465.149902,177.855804 479.466370,185.509933 494.552856,191.678970 
	C496.403687,192.435791 498.540588,192.493149 500.544922,192.874664 
	C500.730255,192.299927 500.915558,191.725174 501.100891,191.150436 
	C499.963074,190.389435 498.825256,189.628433 497.070068,188.473328 
z"/>
<path fill="#000000" opacity="1.000000" stroke="none" 
	d="
M537.000000,318.000000 
	C358.333344,318.000000 179.666656,318.000000 1.000000,318.000000 
	C1.000000,308.255707 1.000000,298.596497 1.412355,288.467438 
	C5.296313,287.018768 8.797079,286.132324 12.234899,285.046539 
	C38.735291,276.676910 65.515396,269.334778 93.161964,266.045197 
	C116.785744,263.234283 140.475098,260.267517 164.212814,259.331024 
	C185.558945,258.488892 207.034958,259.878662 228.407455,261.095703 
	C246.052765,262.100525 263.696747,263.787018 281.221497,266.084900 
	C303.312164,268.981476 325.467987,271.906311 347.261475,276.429291 
	C385.894653,284.447205 424.229736,293.889984 462.780701,302.319702 
	C484.216431,307.006989 505.844666,310.810486 527.364258,315.121368 
	C530.637024,315.777008 533.791077,317.025635 537.000000,318.000000 
z"/>
<path fill="#ffffff" opacity="1.000000" stroke="none" 
	d="
M537.468628,318.000000 
	C533.791077,317.025635 530.637024,315.777008 527.364258,315.121368 
	C505.844666,310.810486 484.216431,307.006989 462.780701,302.319702 
	C424.229736,293.889984 385.894653,284.447205 347.261475,276.429291 
	C325.467987,271.906311 303.312164,268.981476 281.221497,266.084900 
	C263.696747,263.787018 246.052765,262.100525 228.407455,261.095703 
	C207.034958,259.878662 185.558945,258.488892 164.212814,259.331024 
	C140.475098,260.267517 116.785744,263.234283 93.161964,266.045197 
	C65.515396,269.334778 38.735291,276.676910 12.234899,285.046539 
	C8.797079,286.132324 5.296313,287.018768 1.412355,287.998779 
	C1.000000,286.611115 1.000000,285.222198 1.000006,283.416687 
	C4.136272,281.621246 7.394485,280.465729 10.390083,278.829437 
	C43.372452,260.813263 78.449799,248.543472 115.394974,242.203094 
	C137.177841,238.464828 159.236328,235.981354 181.272659,234.176086 
	C200.937195,232.565109 220.765610,231.737061 240.477844,232.249664 
	C262.618744,232.825378 284.726990,235.098068 306.819855,236.979980 
	C343.966461,240.144180 380.365265,247.643616 416.340698,257.124359 
	C442.862122,264.113647 469.011688,272.557434 495.631683,279.116150 
	C518.041687,284.637573 540.730225,289.695038 563.597229,292.480774 
	C581.414062,294.651245 599.716370,293.592072 617.764099,292.922485 
	C640.721436,292.070770 662.593018,285.607788 682.867737,275.207306 
	C696.158691,268.389313 708.130127,259.003784 720.717041,250.805801 
	C724.187805,248.545242 727.746521,246.419815 731.632446,244.116211 
	C732.000000,244.444443 732.000000,244.888901 731.647217,245.614517 
	C730.103821,247.449432 728.840637,248.953339 727.733459,250.564514 
	C715.101440,268.946625 698.618958,283.102386 679.248718,293.834991 
	C658.651489,305.247406 636.560974,312.521667 613.264648,316.114166 
	C612.432617,316.242493 611.751465,317.349243 611.000000,318.000000 
	C586.645752,318.000000 562.291565,318.000000 537.468628,318.000000 
z"/>
<path fill="#000000" opacity="1.000000" stroke="none" 
	d="
M611.468628,318.000000 
	C611.751465,317.349243 612.432617,316.242493 613.264648,316.114166 
	C636.560974,312.521667 658.651489,305.247406 679.248718,293.834991 
	C698.618958,283.102386 715.101440,268.946625 727.733459,250.564514 
	C728.840637,248.953339 730.103821,247.449432 731.647217,245.947845 
	C732.000000,269.945465 732.000000,293.890961 732.000000,318.000000 
	C691.979248,318.000000 651.958313,318.000000 611.468628,318.000000 
z"/>
<path fill="#ffffff" opacity="1.000000" stroke="none" 
	d="
M564.833496,86.963295 
	C564.833496,86.963295 564.959717,87.419022 565.063354,87.998375 
	C566.147217,90.038895 567.127502,91.500061 568.107788,92.961212 
	C568.107788,92.961212 568.044678,92.967110 568.110718,93.281860 
	C569.153748,95.051445 570.130737,96.506294 571.107788,97.961136 
	C571.107788,97.961136 571.043701,97.967422 571.150024,98.233116 
	C571.873535,99.321632 572.490784,100.144455 573.108032,100.967278 
	C573.108032,100.967278 573.042114,100.968735 573.150452,101.233986 
	C573.878357,102.319626 574.497925,103.140015 575.117554,103.960396 
	C582.550049,111.901970 591.306946,117.065971 602.153809,119.570045 
	C606.356140,120.540184 610.345276,125.031815 613.176697,128.849777 
	C621.270691,139.763992 628.421509,151.378601 636.537170,162.275482 
	C641.390930,168.792587 646.917786,174.963394 652.919006,180.438156 
	C664.940918,191.405472 677.723267,201.528625 692.276367,209.016068 
	C701.651611,213.839508 711.368286,217.997879 720.907959,222.504990 
	C722.036865,223.038391 723.014343,223.892365 725.344543,225.461212 
	C719.201538,225.461212 714.301147,226.442139 709.965942,225.292328 
	C690.645508,220.168060 671.244690,215.084473 654.219849,203.871796 
	C651.673340,202.194641 649.070251,202.430603 647.673157,205.664307 
	C646.373596,208.672089 645.233154,211.748566 644.020386,214.793884 
	C642.569214,218.437790 641.115540,222.080734 639.053833,225.775681 
	C637.591248,225.565338 636.737854,225.303421 635.884521,225.041504 
	C635.180664,220.124313 634.763794,215.144730 633.710876,210.303452 
	C631.770569,201.381866 629.691833,192.473892 627.170471,183.704071 
	C626.289917,180.641174 618.184082,179.263870 613.818542,181.904816 
	C610.373413,183.989029 607.711304,187.514389 605.053894,190.694260 
	C603.636108,192.390823 602.965149,194.711502 601.957092,196.750488 
	C601.423401,196.914612 600.889709,197.078735 600.355957,197.242859 
	C598.620422,194.002518 596.007141,190.936981 595.320129,187.487793 
	C593.532349,178.512451 595.228088,169.619583 597.474731,160.831711 
	C598.989197,154.907700 597.975647,153.682800 591.816406,151.755798 
	C588.833801,150.822632 585.973633,149.451736 583.133423,148.118332 
	C572.471375,143.112793 561.380981,141.686569 549.258118,143.748138 
	C548.526123,143.379730 548.349121,143.205399 548.166504,143.036713 
	C549.391052,140.218796 550.615601,137.400864 552.140259,134.140335 
	C552.620239,133.526215 552.794556,133.349121 552.963257,133.166473 
	C553.875000,132.336502 554.786682,131.506500 555.826782,130.096344 
	C555.952576,129.316956 555.949829,129.117737 555.947021,128.918503 
	C555.947021,128.918503 555.953796,128.977982 556.309082,128.933365 
	C563.709839,127.025970 567.197021,119.578911 563.166626,115.002884 
	C563.430237,108.679634 559.612061,104.176720 556.141052,99.569054 
	C555.614441,98.869949 553.999451,98.169380 553.392334,98.474182 
	C542.500793,103.942101 530.630554,108.137413 523.538574,118.992134 
	C521.220581,122.539986 519.936035,126.747200 517.939392,130.526382 
	C516.580811,133.097961 515.273682,136.019516 513.122864,137.784760 
	C508.149292,141.866806 505.922729,140.870132 504.267365,134.034454 
	C495.813416,135.210953 493.804993,146.431625 484.054596,147.024216 
	C484.402039,144.762497 484.231232,142.745789 485.025269,141.236816 
	C488.851196,133.966324 492.506744,126.544907 497.058960,119.736137 
	C501.138550,113.634354 506.234222,108.197746 511.053802,102.616356 
	C512.063110,101.447502 513.742676,100.440544 515.252869,100.185898 
	C529.536865,97.777283 537.895813,88.098747 544.796509,76.526619 
	C546.123718,74.300919 547.610657,72.170433 549.965698,68.547043 
	C554.928040,74.909241 559.184570,80.366631 563.871765,86.132187 
	C564.473877,86.620308 564.650940,86.794624 564.833496,86.963295 
z"/>
<path fill="#ffffff" opacity="1.000000" stroke="none" 
	d="
M563.080200,115.367340 
	C567.197021,119.578911 563.709839,127.025970 556.285522,128.914917 
	C558.268982,124.537987 560.631348,120.134895 563.080200,115.367340 
z"/>
<path fill="#ffffff" opacity="1.000000" stroke="none" 
	d="
M54.684975,238.093216 
	C55.868492,239.113632 56.791878,240.327957 57.882965,241.823807 
	C56.122440,242.605301 54.194214,243.105286 51.253731,243.867737 
	C52.632149,241.441971 53.528500,239.864548 54.684975,238.093216 
z"/>
<path fill="#ffffff" opacity="1.000000" stroke="none" 
	d="
M568.042847,92.623650 
	C567.127502,91.500061 566.147217,90.038895 565.104370,88.231232 
	C566.020508,89.351845 566.999207,90.818962 568.042847,92.623650 
z"/>
<path fill="#ffffff" opacity="1.000000" stroke="none" 
	d="
M571.043152,97.624695 
	C570.130737,96.506294 569.153748,95.051445 568.115784,93.250595 
	C569.029419,94.365814 570.003967,95.827034 571.043152,97.624695 
z"/>
<path fill="#ffffff" opacity="1.000000" stroke="none" 
	d="
M635.936523,225.384338 
	C636.737854,225.303421 637.591248,225.565338 638.751587,225.961914 
	C638.569214,226.654312 638.079834,227.212051 637.590454,227.769791 
	C637.056519,227.088928 636.522583,226.408051 635.936523,225.384338 
z"/>
<path fill="#ffffff" opacity="1.000000" stroke="none" 
	d="
M573.044617,100.650284 
	C572.490784,100.144455 571.873535,99.321632 571.153687,98.201141 
	C571.694458,98.713409 572.337830,99.523346 573.044617,100.650284 
z"/>
<path fill="#ffffff" opacity="1.000000" stroke="none" 
	d="
M575.051208,103.645119 
	C574.497925,103.140015 573.878357,102.319626 573.154785,101.201309 
	C573.695496,101.712204 574.340149,102.521019 575.051208,103.645119 
z"/>
<path fill="#ffffff" opacity="1.000000" stroke="none" 
	d="
M555.768799,129.033081 
	C555.949829,129.117737 555.952576,129.316956 555.956848,129.815216 
	C555.835876,129.792038 555.713257,129.469849 555.768799,129.033081 
z"/>
<path fill="#ffffff" opacity="1.000000" stroke="none" 
	d="
M552.752502,133.199173 
	C552.794556,133.349121 552.620239,133.526215 552.303406,133.824158 
	C552.134827,133.629166 552.259949,133.389603 552.752502,133.199173 
z"/>
<path fill="#ffffff" opacity="1.000000" stroke="none" 
	d="
M548.199097,143.247467 
	C548.349121,143.205399 548.526123,143.379730 548.823975,143.696625 
	C548.628906,143.865219 548.389343,143.740097 548.199097,143.247467 
z"/>
<path fill="#ffffff" opacity="1.000000" stroke="none" 
	d="
M564.800903,86.752556 
	C564.650940,86.794624 564.473877,86.620308 564.176025,86.303406 
	C564.371094,86.134804 564.610657,86.259918 564.800903,86.752556 
z"/>
<path fill="#000000" opacity="1.000000" stroke="none" 
	d="
M497.378754,188.670380 
	C498.825256,189.628433 499.963074,190.389435 501.100891,191.150436 
	C500.915558,191.725174 500.730255,192.299927 500.544922,192.874664 
	C498.540588,192.493149 496.403687,192.435791 494.552856,191.678970 
	C479.466370,185.509933 465.149902,177.855804 452.368744,167.715820 
	C442.652618,160.007462 433.177002,151.937424 424.158722,143.430084 
	C418.785034,138.360840 414.329376,132.268478 409.791840,126.381058 
	C406.955139,122.700455 407.846222,121.092865 412.415497,121.039238 
	C430.057404,120.832146 443.935089,127.719788 454.265228,142.333832 
	C462.078125,153.386658 470.271790,164.256393 479.234833,174.376099 
	C484.180664,179.960190 491.061523,183.830444 497.378754,188.670380 
z"/>
</svg>