<svg width="32" height="42" viewBox="0 0 32 42" fill="none" xmlns="http://www.w3.org/2000/svg">
<path d="M4 31.5C3.44444 31.5 3.04444 31.1792 2.8 30.5375C2.55555 29.8959 2.6 29.2834 2.93333 28.7L8.26666 19.3813C8.53333 18.9146 8.88888 18.6813 9.33333 18.6813C9.77777 18.6813 10.1333 18.9146 10.4 19.3813L14.5333 26.6C14.7556 27.0084 15.0444 27.2417 15.4 27.3C15.7556 27.3584 16.0889 27.2417 16.4 26.95C16.6889 26.6584 16.8613 26.2938 16.9173 25.8563C16.9724 25.4188 16.9111 24.9959 16.7333 24.5875L13.6667 19.25L17.6 12.3813C17.8667 11.9146 18.2222 11.6813 18.6667 11.6813C19.1111 11.6813 19.4667 11.9146 19.7333 12.3813L29.0667 28.7C29.4 29.2834 29.4444 29.8959 29.2 30.5375C28.9556 31.1792 28.5556 31.5 28 31.5H4Z" fill="black"/>
</svg>
