<svg width="32" height="32" viewBox="0 0 32 32" fill="none" xmlns="http://www.w3.org/2000/svg">
<path d="M28.2055 0.359535C28.2055 0.359535 3.81153 0.352035 3.81853 0.359535C1.57003 0.359535 0.30603 1.52203 0.30603 3.89653V28.3795C0.30603 30.601 1.44253 31.764 3.68903 31.764H28.2755C30.522 31.764 31.66 30.659 31.66 28.3795V3.89653C31.6605 1.57953 30.5225 0.359535 28.2055 0.359535ZM15.3745 11.687C15.3745 12.455 14.675 13.2775 13.767 13.2775V26.245C13.767 28.086 11.258 28.086 11.258 26.245V13.2775C10.3745 13.2775 9.60503 12.597 9.60503 11.5775V4.44103C9.60503 3.82003 10.5025 3.79603 10.5025 4.46553V9.74053H11.254V4.41653C11.254 3.84603 12.1185 3.80953 12.1185 4.44103V9.74053H12.895V4.42403C12.895 3.82753 13.734 3.80353 13.734 4.44753V9.74053H14.498V4.42403C14.498 3.83403 15.3745 3.81053 15.3745 4.44753V11.687ZM22.0675 26.239C22.0675 28.0395 19.5535 28.0125 19.5535 26.239V18.248H18.215V6.09953C18.215 3.27153 22.068 3.27153 22.068 6.09953V26.239H22.0675Z" fill="black"/>
</svg>
